<svg width="145" height="32" viewBox="0 0 145 32" fill="none" xmlns="http://www.w3.org/2000/svg">
<path d="M12.8209 12.809L8.54827 0H6.39104C2.86088 0 0 2.86088 0 6.39104C0 9.91372 2.84893 12.7716 6.37162 12.7821L12.8224 12.809H12.8209ZM17.0995 14.9438H4.98674L10.6846 32H17.0995C21.8099 32 25.6284 28.1815 25.6284 23.4711C25.6284 18.7608 21.8099 14.9423 17.0995 14.9423V14.9438ZM37.1526 14.4179V14.412C35.4853 14.412 33.9451 14.9453 32.6768 15.8416V9.76881H29.3826V17.7076L33.0771 28.7836C34.2618 29.5186 35.6571 29.9458 37.1511 29.9458C41.3371 29.9458 44.915 26.4605 44.915 22.1819C44.915 17.9033 41.4297 14.4179 37.1511 14.4179H37.1526ZM37.1526 26.6517C34.6861 26.6517 32.6768 24.6424 32.6768 22.1759C32.6768 19.7094 34.6861 17.7001 37.1526 17.7001C39.619 17.7001 41.6284 19.7094 41.6284 22.1759C41.6284 24.6424 39.619 26.6517 37.1526 26.6517ZM141.218 9.76433V15.8431C139.95 14.9453 138.411 14.4134 136.742 14.4134C133.472 14.4134 130.667 16.4527 129.525 19.324L132.683 28.7895C133.865 29.5186 135.256 29.9399 136.742 29.9399C141.021 29.9399 144.338 26.6114 144.495 22.4657H144.511V9.76433H141.217H141.218ZM141.218 22.1819C141.218 24.6484 139.21 26.6517 136.742 26.6517C134.275 26.6517 132.268 24.6424 132.268 22.1759C132.268 19.7094 134.277 17.7001 136.742 17.7001C139.207 17.7001 141.212 19.7035 141.218 22.1699V22.1819ZM102.46 14.4134C98.1811 14.4134 94.6958 17.8988 94.6958 22.1774C94.6958 26.456 98.1811 29.9414 102.46 29.9414C106.738 29.9414 110.224 26.456 110.224 22.1774C110.224 17.8988 106.738 14.4134 102.46 14.4134ZM102.46 26.6517C99.9933 26.6517 97.9839 24.6424 97.9839 22.1759C97.9839 19.7094 99.9933 17.7001 102.46 17.7001C104.926 17.7001 106.936 19.7094 106.936 22.1759C106.936 24.6424 104.926 26.6517 102.46 26.6517ZM120.152 14.4134C115.874 14.4134 112.388 17.8988 112.388 22.1774C112.388 26.456 115.874 29.9414 120.152 29.9414C124.431 29.9414 127.915 26.456 127.915 22.1774C127.915 17.8988 124.43 14.4134 120.152 14.4134ZM120.152 26.6517C117.686 26.6517 115.677 24.6424 115.677 22.1759C115.677 19.7094 117.684 17.7001 120.152 17.7001C122.62 17.7001 124.627 19.7094 124.627 22.1759C124.627 24.6424 122.617 26.6517 120.152 26.6517ZM54.4926 14.4134C50.214 14.4134 46.7287 17.8988 46.7287 22.1774C46.7287 26.456 50.214 29.9414 54.4926 29.9414C57.7643 29.9414 60.5655 27.9036 61.7068 25.0323H57.9317C57.11 26.0228 55.876 26.6472 54.4926 26.6472C52.3787 26.6472 50.6084 25.1712 50.1453 23.1963H60.67L60.6641 23.2022H62.1804C62.2267 22.8661 62.2551 22.5255 62.2551 22.1774C62.2551 17.8988 58.7698 14.4134 54.4911 14.4134H54.4926ZM50.341 20.5206C51.0013 18.8713 52.6103 17.7016 54.4926 17.7016C56.375 17.7016 57.9839 18.8713 58.6443 20.5206H50.3425H50.341ZM90.4441 14.8781L87.3576 24.0568L84.2711 14.8781H80.5587L77.4723 24.0568L74.3858 14.8781H70.7287L75.6437 29.4947V29.4977H79.3008V29.4947L82.4142 20.2338L85.529 29.4947V29.4977H89.1862V29.4947L94.1012 14.8781H90.4441ZM67.9813 9.77031H64.6872V25.0562L64.6827 25.0592L66.1617 29.4947H69.6232L67.9813 24.5752V9.77031Z" fill="#EBFC00"/>
</svg>
