<?xml version="1.0" encoding="UTF-8"?>
<svg width="248px" height="68px" viewBox="0 0 248 68" version="1.1" xmlns="http://www.w3.org/2000/svg" xmlns:xlink="http://www.w3.org/1999/xlink">
    <title>Bestia</title>
    <g id="Bestia-Logo-Email" stroke="none" stroke-width="1" fill="none" fill-rule="evenodd">
        <g id="bestia-logo-final_2white-side" transform="translate(13, 0)" fill="#0066CC" fill-rule="nonzero">
            <path d="M24.9982235,26.9867472 C24.9982235,26.9867472 26.0135949,26.5273817 26.734181,25.378968 C27.7823063,23.6399416 28.6994159,21.4743616 32.531624,18.0947442 C36.1673086,14.879186 40.228794,11.073015 43.6352012,12.1229932 C43.6352012,12.1229932 41.4406889,12.3854877 38.4600826,16.0275996 C38.4600826,16.0275996 43.340416,21.1134316 42.0302594,25.1492853 C42.0302594,25.1492853 44.5523108,28.0039136 44.6505726,32.1053909 C44.6505726,32.1053909 43.2421542,29.9726227 41.9647515,29.1195154 C41.9975055,32.5319446 41.3096732,33.8116055 38.0015278,35.7475029 C38.0015278,35.7475029 36.8878947,35.353761 35.6432459,34.1725355 C36.003539,35.714691 36.8223869,37.1584111 36.6586173,38.4052602 C36.4948477,39.7833566 34.7261363,41.3911357 33.0556866,42.5395494 C33.0556866,42.5395494 35.4467224,42.3754903 37.5757269,40.6036521 C38.1652974,42.8020439 34.5296128,44.9020004 31.3852369,45.5254249 C33.8745345,45.689484 36.003539,45.328554 37.8050043,44.1145167 C37.6412347,46.5425913 35.3157068,47.2972632 32.0730692,47.1988277 C32.0730692,47.1988277 34.0383041,47.9863114 36.003539,47.8878759 C34.2020737,50.7096923 29.5510177,49.856585 26.1773644,47.2644513 C26.1773644,47.2644513 25.3912705,45.2629304 28.2408611,43.3598449 C32.0730692,41.4239475 32.9901788,40.1442866 30.599143,37.3880938 C30.599143,37.3880938 31.1232056,39.9146039 30.4026195,40.1770984 C29.813049,40.3739693 29.2889864,39.9802275 28.4373846,39.9802275 C27.3892593,39.9802275 26.3083801,40.5052166 25.0309774,40.5380284 L25.0309774,40.5380284 C25.0309774,40.5380284 25.0309774,40.5380284 25.0309774,40.5380284 C25.0309774,40.5380284 25.0309774,40.5380284 25.0309774,40.5380284 L25.0309774,40.5380284 C23.7535747,40.5052166 22.6726955,39.9802275 21.6245702,39.9802275 C20.7402145,39.9802275 20.2161519,40.3739693 19.6593353,40.1770984 C18.9387492,39.9146039 19.4628118,37.3880938 19.4628118,37.3880938 C17.071776,40.1442866 17.9888856,41.4239475 21.8210937,43.3598449 C24.6706843,45.2629304 23.8845904,47.2644513 23.8845904,47.2644513 C20.5109371,49.856585 15.8271272,50.7096923 14.0584158,47.8878759 C16.0236507,47.9863114 17.9888856,47.1988277 17.9888856,47.1988277 C14.746248,47.2972632 12.4207201,46.5425913 12.2569505,44.1145167 C14.0584158,45.328554 16.1874203,45.689484 18.6767179,45.5254249 C15.532342,44.9020004 11.8966574,42.8348558 12.4862279,40.6036521 C14.6152324,42.3426785 17.0062682,42.5395494 17.0062682,42.5395494 C15.3358185,41.3911357 13.5343532,39.7833566 13.4033375,38.4052602 C13.2723219,37.1255993 14.0584158,35.714691 14.4187089,34.1725355 C13.1740601,35.353761 12.060427,35.7475029 12.060427,35.7475029 C8.75228156,33.8116055 8.06444934,32.5319446 8.09720326,29.1195154 C6.81980057,29.9726227 5.41138221,32.1053909 5.41138221,32.1053909 C5.50964396,28.0039136 8.03169543,25.1492853 8.03169543,25.1492853 C6.72153882,21.1134316 11.6018722,16.0275996 11.6018722,16.0275996 C8.6212659,12.3854877 6.42675359,12.1229932 6.42675359,12.1229932 C9.83316076,11.073015 13.8946462,14.879186 17.5303308,18.0947442 C21.3625389,21.4743616 22.2796485,23.6399416 23.3277738,25.378968 C23.9828521,26.5273817 24.9982235,26.9867472 24.9982235,26.9867472 L24.9982235,26.9867472 Z M11.8966574,26.4617581 C12.1914427,29.5788809 14.1239237,30.5632355 17.9561317,30.5632355 C18.5129483,31.6132137 17.2027917,35.6162556 17.2027917,35.6162556 C19.0370109,33.910041 20.5109371,30.7929182 21.4935546,27.4133008 C20.5764449,27.7742308 19.6920892,27.6429836 19.1025188,27.3476772 C18.1526552,26.8554999 17.5303308,25.7398981 15.925389,24.8211671 C13.7308767,23.5415062 11.1433174,24.0008716 9.57112944,25.4774035 L11.8966574,26.4617581 L11.8966574,26.4617581 Z M14.8772637,26.2648872 C14.779002,26.4617581 14.7134941,26.6914408 14.7134941,26.9211235 C14.7134941,27.7086072 15.3358185,28.3648436 16.1546664,28.3648436 C16.7114829,28.3648436 17.2027917,28.0367254 17.4320691,27.5445481 C17.6941004,27.741419 17.9561317,27.9711017 18.218163,28.2335963 C17.8251161,28.9882681 17.0390221,29.4804454 16.1219125,29.4804454 C14.8117559,29.4804454 13.7308767,28.3976554 13.7308767,27.0851826 C13.7308767,26.7570644 13.7963845,26.4289463 13.9274002,26.1336399 C14.2549393,26.1336399 14.5824785,26.1664517 14.8772637,26.2648872 L14.8772637,26.2648872 Z M38.0997896,26.4617581 L40.3925636,25.4774035 C38.7876218,24.0008716 36.2328164,23.5415062 34.0383041,24.8211671 C32.4333622,25.7398981 31.8110378,26.8554999 30.8611743,27.3476772 C30.2716038,27.6429836 29.3872481,27.8070427 28.4701385,27.4133008 C29.4855099,30.82573 30.9594361,33.9428528 32.7609014,35.6162556 C32.7609014,35.6162556 31.4507448,31.5804018 32.0075613,30.5632355 C35.9052772,30.5632355 37.8050043,29.5788809 38.0997896,26.4617581 L38.0997896,26.4617581 Z M35.1191833,26.2648872 C35.4139685,26.1992635 35.7415077,26.1336399 36.0690468,26.1008281 C36.2000625,26.3961344 36.2655703,26.7242526 36.2655703,27.0523708 C36.2655703,28.3648436 35.1846911,29.4476336 33.8745345,29.4476336 C32.9574249,29.4476336 32.1713309,28.9554563 31.7782839,28.2007845 C32.0403153,27.9382899 32.3023466,27.7086072 32.5643779,27.5117363 C32.7936553,28.0039136 33.284964,28.3320318 33.8417806,28.3320318 C34.6278745,28.3320318 35.2829529,27.7086072 35.2829529,26.8883117 C35.2829529,26.6914408 35.2501989,26.4617581 35.1191833,26.2648872 L35.1191833,26.2648872 Z M24.9982235,56.3533252 C28.5684002,56.2877016 30.0423264,57.665798 31.5817604,57.8626689 C33.0229327,58.0595398 33.7762728,56.386137 33.6452571,54.3189924 C35.1191833,57.3704916 33.4814875,61.9641463 29.6492794,63.4734899 C30.0423264,62.915689 30.4681273,61.7016517 30.0095725,61.471969 C30.0095725,61.471969 29.7147873,62.6860063 24.9654696,66 C20.2489058,62.6860063 19.9213666,61.471969 19.9213666,61.471969 C19.4628118,61.7016517 19.8886127,62.9485008 20.2816597,63.4734899 C16.4166977,61.9969581 14.8117559,57.3704916 16.2856821,54.3189924 C16.1546664,56.4189488 16.9407604,58.0595398 18.3491787,57.8626689 C19.9541206,57.665798 21.4608007,56.2877016 24.9982235,56.3533252 L24.9982235,56.3533252 Z M24.9982235,5.85593573 C24.5396687,6.31530119 20.9694919,9.9574131 17.3338073,12.4511114 C17.3338073,12.4511114 13.3378297,4.87158116 6.62327708,4.47783933 C11.1433174,2.21382381 15.3685724,2.181012 19.2990422,5.42938208 C19.2990422,5.42938208 18.8404874,1.68883471 14.385955,0.441985587 C18.1854091,-0.640804441 21.1660154,0.245114673 25.0309774,3.32942566 C28.8631855,0.245114673 31.8437918,-0.640804441 35.6759998,0.441985587 C31.2214674,1.65602289 30.7629126,5.42938208 30.7629126,5.42938208 C34.6933824,2.21382381 38.8858835,2.21382381 43.4386777,4.47783933 C36.7241251,4.83876934 32.7281475,12.4511114 32.7281475,12.4511114 C29.059709,9.9574131 25.4567783,6.31530119 24.9982235,5.85593573 L24.9982235,5.85593573 Z M23.9828521,14.879186 C24.015606,14.8135623 24.0483599,14.7807505 24.1138678,14.7807505 C24.1793756,14.7807505 24.2121295,14.8135623 24.2448834,14.879186 L24.6379304,15.9947878 C24.7689461,16.3885296 25.0964852,16.683836 25.4895322,16.8478951 L26.6031653,17.2416369 C26.6686732,17.2744487 26.7014271,17.3072606 26.7014271,17.3728842 C26.7014271,17.4385078 26.6686732,17.4713197 26.6031653,17.5041315 L25.4895322,17.8978733 C25.0964852,18.0291206 24.8017,18.3572388 24.6379304,18.7509806 L24.2448834,19.8665825 C24.2121295,19.9322061 24.1793756,19.9650179 24.1138678,19.9650179 C24.0483599,19.9650179 24.015606,19.9322061 23.9828521,19.8665825 L23.5898051,18.7509806 C23.4587895,18.3572388 23.1312503,18.0619324 22.7382033,17.8978733 L21.6245702,17.5041315 C21.5590624,17.4713197 21.5263085,17.4385078 21.5263085,17.3728842 C21.5263085,17.3072606 21.5590624,17.2744487 21.6245702,17.2416369 L22.7382033,16.8478951 C23.1312503,16.7166478 23.4260356,16.3885296 23.5898051,15.9947878 L23.9828521,14.879186 L23.9828521,14.879186 Z M26.5049036,13.6323368 C26.5049036,13.599525 26.5376575,13.5667132 26.5704114,13.5667132 C26.6031653,13.5667132 26.6359192,13.599525 26.6359192,13.6323368 L26.8651967,14.2885732 C26.9634584,14.5182559 27.127228,14.7151269 27.3565054,14.7807505 L28.0115837,15.0104332 C28.0443376,15.0104332 28.0770915,15.0432451 28.0770915,15.0760569 C28.0770915,15.1088687 28.0443376,15.1416805 28.0115837,15.1416805 L27.3565054,15.3713632 C27.127228,15.4697987 26.9307045,15.6338578 26.8651967,15.8635405 L26.6359192,16.5197769 C26.6359192,16.5525887 26.6031653,16.5854005 26.5704114,16.5854005 C26.5376575,16.5854005 26.5049036,16.5525887 26.5049036,16.5197769 L26.2756262,15.8635405 C26.1773644,15.6338578 26.0135949,15.4369869 25.7843175,15.3713632 L25.1292391,15.1416805 C25.0964852,15.1416805 25.0637313,15.1088687 25.0637313,15.0760569 C25.0637313,15.0432451 25.0964852,15.0104332 25.1292391,15.0104332 L25.7843175,14.7807505 C26.0135949,14.682315 26.2101184,14.5182559 26.2756262,14.2885732 L26.5049036,13.6323368 L26.5049036,13.6323368 Z M14.8445098,13.6979605 C14.8445098,13.6979605 13.8291384,12.8120414 11.2088252,12.0245577 C7.57314062,9.13711763 4.00296386,8.9074349 1.80845155,9.66210673 C1.38265065,12.3526759 3.90470212,15.4041751 5.83718311,16.7166478 C1.57917414,15.4369869 -0.124029449,12.1229932 0.00698621123,8.7433758 C5.31312047,5.39657026 11.9949192,8.97305853 14.8445098,13.6979605 L14.8445098,13.6979605 Z M19.8886127,51.858106 C19.8886127,51.858106 19.8231049,53.4002615 20.5764449,54.942417 C20.6747067,55.1392879 20.6091989,55.3689706 20.4126754,55.5002179 C20.150644,55.6970888 19.6920892,55.8283361 19.1025188,55.4674061 C18.0871474,54.8767934 18.0543935,52.579966 19.8886127,51.858106 L19.8886127,51.858106 Z M35.1519372,13.6979605 C38.0342817,8.97305853 44.6833265,5.39657026 49.9894608,8.7433758 C50.1532303,12.1229932 48.4172728,15.4369869 44.1592639,16.7166478 C46.0589909,15.4369869 48.6137963,12.3854877 48.1879954,9.66210673 C45.9934831,8.9074349 42.4233064,9.16992945 38.7876218,12.0245577 C36.2000625,12.8448532 35.1519372,13.6979605 35.1519372,13.6979605 L35.1519372,13.6979605 Z M30.1405882,51.858106 C31.9748074,52.579966 31.9420535,54.8767934 30.9266821,55.5002179 C30.3371117,55.8611479 29.8785568,55.6970888 29.6165255,55.5330297 C29.420002,55.4017825 29.3544942,55.1720997 29.452756,54.9752288 C30.206096,53.4002615 30.1405882,51.858106 30.1405882,51.858106 L30.1405882,51.858106 Z" id="Shape"></path>
            <path d="M61.0653885,19.0484243 C66.00222,19.0484243 70.9390515,19.0484243 75.9085772,19.0484243 C76.1047427,19.0484243 76.1701312,19.1145273 76.1701312,19.3128363 C76.1701312,23.8408916 76.1701312,28.4019985 76.1701312,32.9300538 C76.1701312,33.0292083 76.1701312,33.0953113 76.1701312,33.1944658 C77.2490414,31.2774789 78.9818365,30.2528824 80.9107972,29.4926979 C82.4147326,28.9308224 83.9513623,28.765565 85.5206862,28.8316679 C89.9017154,29.0299769 93.1057518,31.1452729 95.2308779,34.9461952 C96.3424823,36.8962337 96.8655903,39.0115296 96.9963673,41.2590315 C97.1271443,43.5726364 96.8655903,45.8531899 96.0482341,48.0345888 C95.4270434,49.7202152 94.5116044,51.2405842 93.2365288,52.5295926 C91.4710394,54.3474251 89.3459132,55.4381245 86.8611504,55.801691 C85.2918264,56 83.7551968,56.0330515 82.2185671,55.5703305 C80.0280525,54.942352 78.0990918,53.8186011 76.6605449,51.9677171 C76.5624622,51.8355111 76.4643794,51.6702537 76.3336024,51.5380477 C76.2355197,51.4058417 76.1374369,51.2405842 76.0066599,51.0422752 C76.0066599,51.1744812 76.0066599,51.2405842 76.0066599,51.3066872 C76.0066599,52.5295926 76.0066599,53.7194466 76.0066599,54.942352 C76.0066599,55.140661 75.9412714,55.1737125 75.7778002,55.1737125 C72.8353179,55.1737125 69.8928355,55.1737125 66.9503532,55.1737125 C66.7541877,55.1737125 66.6887992,55.140661 66.6887992,54.9093005 C66.6887992,45.6218294 66.6887992,36.3343582 66.6887992,27.046887 C66.6887992,26.8155265 66.6234107,26.782475 66.4272452,26.782475 C64.6290616,26.782475 62.8308779,26.782475 61,26.782475 C61.0653885,24.2044581 61.0653885,21.6264412 61.0653885,19.0484243 Z M76.1374369,42.3827825 C76.1374369,42.7132975 76.1374369,43.010761 76.2028254,43.3412759 C76.4643794,45.2252114 77.3471241,46.6794773 78.9818365,47.6710223 C80.1588295,48.3651038 81.4339051,48.5964643 82.7743693,48.4312068 C84.2129162,48.2659493 85.4552977,47.6379708 86.4034309,46.5142198 C88.0708375,44.5311299 88.3323915,41.5895465 87.0900101,39.2759416 C85.3572149,35.9707917 81.2050454,35.4089162 78.5568113,37.3589547 C76.8894046,38.5818601 76.1701312,40.3335895 76.1374369,42.3827825 Z M113.278103,55.9669485 C113.081937,55.867794 112.853078,55.9008455 112.624218,55.9008455 C110.499092,55.735588 108.472048,55.2398155 106.575782,54.2482706 C103.142886,52.4634896 100.985066,49.6541122 100.167709,45.8531899 C99.5792129,43.2421214 99.6119072,40.5980015 100.331181,38.0199846 C101.312008,34.5826287 103.40444,32.0376633 106.543088,30.3850884 C108.210494,29.4926979 110.008678,29.0630284 111.87225,28.8977709 C113.997376,28.7325135 116.089808,28.8316679 118.149546,29.3935434 C119.980424,29.8893159 121.680525,30.6825519 123.119072,31.9715603 C124.590313,33.2936203 125.57114,34.9131437 126.225025,36.7309762 C126.65005,37.9869331 126.87891,39.2759416 127.009687,40.56495 C127.10777,41.688701 127.075076,42.7794005 127.042381,43.9031514 C127.042381,44.3989239 127.009687,44.3989239 126.551968,44.3989239 C120.667003,44.3989239 114.749344,44.3989239 108.864379,44.3989239 C108.700908,44.3989239 108.63552,44.3989239 108.668214,44.5972329 C108.864379,46.3489623 109.812513,47.5388163 111.316448,48.3320523 C112.362664,48.8939277 113.474268,49.0591852 114.618567,49.0922367 C116.547528,49.1583397 118.378406,48.8278248 120.143895,48.0015373 C120.928557,47.6379708 121.64783,47.2413528 122.269021,46.6133743 C122.628658,47.2083013 122.988295,47.7701768 123.347931,48.3320523 C124.165288,49.6541122 124.982644,50.9761722 125.8,52.2982321 C125.898083,52.4304381 125.898083,52.4965411 125.767306,52.6287471 C124.655701,53.6863951 123.380626,54.4135281 121.942079,54.9093005 C120.405449,55.405073 118.868819,55.7025365 117.266801,55.8347425 C116.743693,55.867794 116.220585,55.9008455 115.664783,55.933897 C115.632089,55.933897 115.599395,55.933897 115.5667,55.9669485 C114.814733,55.9669485 114.062765,55.9669485 113.278103,55.9669485 Z M113.539657,39.4081476 C114.291625,39.4081476 115.043592,39.4081476 115.762866,39.4081476 C116.514834,39.4081476 117.299495,39.4081476 118.051463,39.4081476 C118.18224,39.4081476 118.214934,39.3750961 118.214934,39.2428901 C118.18224,39.0115296 118.18224,38.7801691 118.116852,38.5488086 C117.724521,37.0284397 116.841776,35.9046887 115.337841,35.3758647 C114.553179,35.1114527 113.735822,35.1114527 112.918466,35.1775557 C110.695257,35.4089162 109.125933,36.9623367 108.864379,39.1767871 C108.831685,39.3420446 108.864379,39.3750961 109.027851,39.3750961 C110.531786,39.4081476 112.035721,39.4081476 113.539657,39.4081476 Z M141.068214,55.9669485 C141.068214,55.933897 141.100908,55.933897 141.133602,55.933897 C141.918264,55.9008455 142.702926,55.8347425 143.487588,55.7025365 C145.285772,55.4381245 147.018567,55.008455 148.620585,54.1491161 C150.059132,53.3889316 151.170737,52.2982321 151.922704,50.8439662 C152.445812,49.8193697 152.641978,48.6625673 152.674672,47.5057648 C152.707366,46.2828593 152.609284,45.0930054 152.086176,43.9692544 C151.497679,42.746349 150.549546,41.820907 149.405247,41.093774 C148.228254,40.3335895 146.920484,39.9369716 145.58002,39.5403536 C144.50111,39.2428901 143.356811,39.0776326 142.310595,38.7140661 C141.722099,38.5157571 141.166297,38.3174481 140.675883,37.9208301 C140.218163,37.5572636 140.021998,37.0614912 140.087386,36.4665642 C140.185469,35.8716372 140.545106,35.5411222 141.068214,35.3097617 C142.245207,34.7809377 143.520283,34.7809377 144.762664,34.9131437 C146.266599,35.0784012 147.607064,35.6733282 148.882139,36.4004612 C149.012916,36.4665642 149.143693,36.6318217 149.27447,36.5987702 C149.405247,36.5657187 149.437941,36.3674097 149.50333,36.2352037 C150.418769,34.5495772 151.334208,32.8970023 152.249647,31.2113759 C152.315035,31.0791699 152.282341,31.0130669 152.184258,30.9469639 C151.922704,30.7817064 151.66115,30.6495004 151.399596,30.5503459 C149.209082,29.6249039 146.88779,29.1291314 144.533804,28.8977709 C142.539455,28.7325135 140.545106,28.7986164 138.550757,29.2613374 C136.981433,29.6249039 135.477497,30.1537279 134.137033,31.0791699 C132.404238,32.2690238 131.259939,33.7893928 131.129162,35.9707917 C130.965691,38.5157571 131.815742,40.5980015 133.810091,42.151422 C135.019778,43.1099154 136.425631,43.6717909 137.896872,44.1345119 C138.877699,44.4319754 139.858527,44.5641814 140.839354,44.8616449 C141.558628,45.0930054 142.245207,45.3243659 142.866398,45.7870869 C143.716448,46.4481168 143.716448,47.6710223 142.899092,48.3651038 C142.670232,48.5634128 142.408678,48.7286703 142.147124,48.8278248 C140.839354,49.3566487 139.466196,49.3566487 138.093037,49.1913912 C136.196771,48.9600307 134.594753,48.1006918 133.058123,47.0099923 C132.927346,46.9108378 132.894652,46.9108378 132.796569,47.0760953 C131.848436,49.0591852 130.900303,51.0092237 129.919475,52.9923136 C129.854087,53.1245196 129.886781,53.1906226 129.984864,53.2567256 C130.834914,53.8186011 131.717659,54.3143736 132.665792,54.67794 C134.49667,55.405073 136.360242,55.801691 138.321897,55.933897 C138.550757,55.933897 138.812311,55.933897 139.008476,56 C139.662361,55.9669485 140.34894,55.9669485 141.068214,55.9669485 Z M204.233502,55.933897 C204.200807,55.933897 204.200807,55.9669485 204.168113,55.9669485 C204.691221,55.9669485 205.181635,55.9669485 205.704743,55.9669485 C205.672048,55.9669485 205.672048,55.933897 205.639354,55.933897 C205.181635,55.9669485 204.723915,55.933897 204.233502,55.933897 Z M205.639354,55.933897 C205.181635,55.9669485 204.691221,55.9669485 204.233502,55.933897 C199.950555,55.7025365 196.779213,53.6533436 194.588698,49.9846272 C193.607871,48.3320523 193.019374,46.5472713 192.790515,44.6302844 C192.496266,42.3166795 192.594349,40.0030746 193.313623,37.7886241 C194.327144,34.5165257 196.223411,31.9385088 199.198587,30.2528824 C200.571746,29.4596464 202.042987,29.0630284 203.612311,28.8977709 C205.181635,28.7325135 206.718264,28.7986164 208.2222,29.2613374 C210.183855,29.8562644 211.851261,30.9139124 213.159031,32.5334358 C213.257114,32.6325903 213.322503,32.7647963 213.387891,32.8639508 C213.45328,32.9631053 213.518668,33.0953113 213.616751,33.2275173 C213.682139,33.1614143 213.649445,33.0622598 213.649445,32.9961568 C213.649445,31.9385088 213.649445,30.8478094 213.649445,29.7901614 C213.649445,29.6249039 213.682139,29.5588009 213.878305,29.5588009 C216.853481,29.5588009 219.795964,29.5588009 222.77114,29.5588009 C222.967306,29.5588009 223,29.6249039 223,29.7901614 C223,36.8962337 223,44.0353574 223,51.1414297 C223,52.4304381 223,53.7194466 223,55.008455 C223,55.1737125 222.934612,55.206764 222.803835,55.206764 C219.861352,55.206764 216.951564,55.206764 214.009082,55.206764 C213.84561,55.206764 213.780222,55.1737125 213.780222,54.9754035 C213.780222,53.7194466 213.780222,52.4965411 213.780222,51.2405842 C213.780222,51.2075327 213.780222,51.1744812 213.780222,51.1083782 C211.68779,53.9177556 209.137639,55.735588 205.639354,55.933897 Z M213.584057,42.415834 C213.584057,40.8624135 213.126337,39.4742506 212.14551,38.2843966 C210.870434,36.7640277 209.170333,36.1360492 207.208678,36.3013067 C204.952775,36.5326672 203.350757,37.7225211 202.369929,39.8047656 C201.781433,41.027671 201.68335,42.349731 201.944904,43.6717909 C202.337235,45.6218294 203.383451,47.0430438 205.14894,47.9023828 C206.162462,48.3981553 207.241372,48.5634128 208.352977,48.4642583 C209.758829,48.3320523 210.968517,47.8032283 211.91665,46.7455803 C213.060949,45.5226749 213.551362,44.0353574 213.584057,42.415834 Z M159.73663,47.0430438 C159.73663,48.0676403 159.834712,49.0922367 160.063572,50.0837817 C160.455903,51.6041507 161.175177,52.9262106 162.384864,53.9508071 C163.888799,55.206764 165.654289,55.801691 167.583249,55.9008455 C169.316044,56 171.016145,55.867794 172.716246,55.4381245 C173.991322,55.1076095 175.201009,54.67794 176.378002,54.0499616 C176.508779,53.9838586 176.541473,53.9177556 176.476085,53.7524981 C175.462563,51.6041507 174.416347,49.4558032 173.402825,47.3074558 C173.337437,47.2083013 173.304743,47.2083013 173.239354,47.2744043 C172.74894,47.6379708 172.225832,48.0015373 171.571948,48.0345888 C170.427649,48.1337433 169.708375,47.7371253 169.348739,46.6133743 C169.152573,45.9853958 169.05449,45.3574174 169.05449,44.7294389 C169.05449,42.349731 169.05449,39.9369716 169.05449,37.5572636 C169.05449,37.3589547 169.087185,37.3259032 169.28335,37.3259032 C171.016145,37.3259032 172.781635,37.3259032 174.51443,37.3259032 C174.677901,37.3259032 174.74329,37.2928517 174.74329,37.0945427 C174.74329,34.6487317 174.74329,32.1698693 174.74329,29.7240584 C174.74329,29.5588009 174.710595,29.4926979 174.51443,29.4926979 C172.781635,29.4926979 171.016145,29.4926979 169.28335,29.4926979 C169.087185,29.4926979 169.05449,29.4265949 169.05449,29.2282859 C169.05449,25.8900846 169.05449,22.5188317 169.05449,19.1806303 C169.05449,19.0153728 169.021796,18.9492698 168.825631,18.9492698 C165.883148,18.9492698 162.940666,18.9492698 159.998184,18.9492698 C159.802018,18.9492698 159.769324,18.9823213 159.769324,19.1806303 C159.769324,22.5188317 159.769324,25.8570331 159.769324,29.2282859 C159.769324,29.4596464 159.703935,29.4926979 159.50777,29.4926979 C158.232694,29.4926979 156.924924,29.4926979 155.649849,29.4926979 C155.486377,29.4926979 155.453683,29.5257494 155.453683,29.6910069 C155.453683,32.1698693 155.453683,34.6156802 155.453683,37.0945427 C155.453683,37.2598002 155.486377,37.2928517 155.649849,37.2928517 C156.957619,37.2928517 158.265388,37.2928517 159.540464,37.2928517 C159.73663,37.2928517 159.769324,37.3589547 159.769324,37.5242121 C159.769324,39.2759416 159.769324,41.0607225 159.769324,42.812452 C159.73663,44.2667179 159.73663,45.6548809 159.73663,47.0430438 Z M179.74551,54.942352 C179.74551,55.140661 179.778204,55.1737125 179.974369,55.1737125 C182.949546,55.1737125 185.924723,55.1737125 188.899899,55.1737125 C189.096065,55.1737125 189.128759,55.140661 189.128759,54.942352 C189.128759,46.5472713 189.128759,38.1521906 189.128759,29.7571099 C189.128759,29.5588009 189.06337,29.5257494 188.899899,29.5257494 C185.924723,29.5257494 182.949546,29.5257494 180.007064,29.5257494 C179.810898,29.5257494 179.74551,29.5588009 179.74551,29.7901614 C179.74551,33.9877018 179.74551,38.1521906 179.74551,42.349731 C179.74551,46.5472713 179.74551,50.7448117 179.74551,54.942352 Z M184.453481,13 C181.151362,13 178.503128,15.7102229 178.503128,19.0153728 C178.503128,22.3535742 181.184057,25.0307456 184.453481,25.0307456 C187.722906,25.0307456 190.403835,22.3205227 190.403835,19.0153728 C190.403835,15.7102229 187.7556,13 184.453481,13 Z" id="Shape"></path>
        </g>
    </g>
</svg>